<svg id="svg" version="1.1" xmlns="http://www.w3.org/2000/svg" xmlns:xlink="http://www.w3.org/1999/xlink" width="400" height="410.2325581395349" viewBox="0, 0, 400,410.2325581395349"><g id="svgg"><path id="path0" d="M0.000 205.000 L 0.000 410.000 200.000 410.000 L 400.000 410.000 400.000 205.000 L 400.000 0.000 200.000 0.000 L 0.000 0.000 0.000 205.000 M213.494 19.814 C 323.650 27.584,402.703 129.228,383.187 238.000 C 378.530 263.954,367.295 290.991,352.853 311.000 C 351.741 312.540,350.060 314.877,349.116 316.193 C 348.172 317.509,345.523 320.839,343.229 323.593 C 273.340 407.507,146.416 413.443,69.167 336.410 C 56.148 323.428,49.554 314.973,39.461 298.326 C 28.983 281.043,20.729 258.253,16.963 236.207 C -3.313 117.530,93.143 11.325,213.494 19.814 M257.210 71.025 C 240.885 74.564,231.792 92.759,238.680 108.105 L 239.730 110.446 244.778 112.974 C 251.206 116.193,255.987 119.102,260.438 122.502 C 264.651 125.720,275.440 122.288,282.000 115.644 C 300.568 96.836,283.108 65.411,257.210 71.025 M190.800 98.813 C 181.854 99.663,172.411 101.680,164.600 104.410 C 159.429 106.218,152.400 109.252,152.400 109.677 C 152.400 110.514,153.691 112.449,154.127 112.265 C 154.387 112.155,156.220 111.356,158.200 110.490 C 178.646 101.548,202.833 99.804,225.327 105.650 C 230.758 107.062,230.646 107.091,230.006 104.427 C 229.461 102.154,229.731 102.291,222.855 100.791 C 214.183 98.899,199.461 97.990,190.800 98.813 M137.765 118.078 C 118.334 131.866,102.513 153.681,96.774 174.603 L 95.931 177.675 96.835 178.637 C 98.247 180.141,98.524 179.861,99.736 175.699 C 105.930 154.435,120.000 134.865,138.890 121.239 L 142.380 118.721 141.780 117.561 C 140.990 116.034,140.570 116.088,137.765 118.078 M272.021 129.584 L 269.843 130.285 273.626 134.242 C 289.134 150.462,298.607 170.336,301.494 192.700 L 302.178 198.000 305.107 198.000 L 308.036 198.000 307.835 196.700 C 307.724 195.985,307.527 194.320,307.396 193.000 C 305.295 171.785,295.419 150.308,279.851 133.100 C 275.584 128.383,275.653 128.414,272.021 129.584 M238.400 135.772 C 221.984 139.246,213.497 155.909,220.153 171.600 C 220.372 172.116,219.633 172.205,214.904 172.239 C 197.614 172.362,177.455 186.327,153.124 215.039 C 124.290 249.065,127.087 245.640,127.421 246.511 C 127.850 247.628,128.593 247.569,136.857 245.763 C 141.336 244.784,147.863 243.356,151.363 242.588 C 154.863 241.821,157.814 241.281,157.922 241.388 C 158.221 241.687,147.716 252.754,127.914 273.000 L 124.002 277.000 122.677 275.600 C 112.657 265.008,103.884 249.558,99.623 235.000 C 98.915 232.580,98.255 230.348,98.157 230.040 C 98.021 229.612,97.745 229.700,96.990 230.410 C 92.911 234.241,109.928 267.312,121.149 277.362 C 122.503 278.574,122.375 278.758,114.659 286.671 C 105.696 295.864,101.915 299.881,101.436 300.720 C 101.016 301.455,125.677 325.977,126.851 325.992 C 128.357 326.011,128.474 325.040,127.460 320.939 C 126.924 318.772,125.821 314.120,125.008 310.600 C 124.195 307.080,123.372 303.587,123.180 302.838 C 122.724 301.063,122.406 301.365,128.284 297.995 C 131.098 296.381,134.298 294.462,135.395 293.731 C 137.690 292.199,138.046 292.147,139.668 293.100 C 141.369 294.100,142.516 292.801,141.184 291.383 L 140.371 290.517 146.085 286.293 C 152.909 281.248,159.064 276.229,170.040 266.758 C 174.528 262.886,180.810 257.491,184.000 254.771 C 212.501 230.465,229.101 205.329,229.352 186.100 C 229.405 182.037,229.385 182.067,231.277 183.174 C 242.845 189.945,260.161 184.792,266.211 172.777 C 275.847 153.643,259.121 131.387,238.400 135.772 M248.749 138.874 C 251.090 139.392,256.466 141.938,256.685 142.632 C 256.760 142.869,251.956 147.524,246.011 152.976 C 240.065 158.427,235.200 163.161,235.200 163.495 C 235.200 164.239,236.287 165.472,244.904 174.503 L 251.682 181.607 250.141 182.274 C 245.203 184.411,234.726 182.801,230.088 179.193 C 210.285 163.786,224.317 133.468,248.749 138.874 M260.883 145.900 C 268.457 153.970,268.024 168.776,259.978 176.822 C 257.579 179.221,255.554 180.543,254.612 180.324 C 254.199 180.228,244.642 170.240,239.525 164.555 C 238.639 163.571,238.295 163.935,251.696 151.664 C 260.024 144.038,259.465 144.389,260.883 145.900 M258.389 157.013 C 257.992 157.492,257.981 157.960,258.340 159.159 C 259.013 161.403,258.888 163.967,258.014 165.894 C 257.327 167.407,257.309 167.652,257.851 168.194 C 258.684 169.027,259.015 168.961,259.948 167.776 C 262.736 164.231,261.200 153.626,258.389 157.013 M221.518 175.613 C 222.243 175.876,222.783 176.228,222.718 176.396 C 222.471 177.034,164.252 235.600,163.865 235.600 C 163.484 235.600,162.297 234.510,153.660 226.229 C 149.660 222.394,149.296 223.615,157.113 214.650 C 173.995 195.290,192.222 180.408,203.467 176.800 C 209.583 174.839,217.875 174.293,221.518 175.613 M72.000 178.021 C 56.616 179.786,45.921 194.635,49.026 209.917 C 52.590 227.454,72.073 236.426,88.090 227.906 C 92.328 225.652,96.572 221.561,96.251 220.041 C 95.044 214.335,95.112 197.092,96.367 190.511 C 97.550 184.301,82.865 176.774,72.000 178.021 M226.578 180.401 C 227.261 181.563,227.395 182.453,227.371 185.650 C 227.318 192.803,225.545 195.155,203.040 217.940 C 193.554 227.543,183.465 237.785,180.620 240.700 C 177.774 243.615,175.254 246.000,175.018 246.000 C 174.782 246.000,172.646 244.155,170.272 241.900 L 165.953 237.800 195.230 208.281 C 213.187 190.176,224.749 178.809,225.132 178.882 C 225.476 178.948,226.126 179.632,226.578 180.401 M221.234 205.844 C 214.933 219.036,202.867 234.082,187.703 247.658 C 181.529 253.185,182.015 253.047,179.089 250.090 L 176.803 247.780 199.702 224.431 C 212.296 211.589,222.681 200.883,222.781 200.641 C 222.881 200.398,223.029 200.516,223.111 200.902 C 223.193 201.289,222.348 203.512,221.234 205.844 M302.000 212.910 C 302.000 232.724,289.623 260.559,273.460 277.095 C 270.478 280.146,270.439 280.369,272.760 281.145 C 274.833 281.838,274.838 281.836,278.518 278.100 C 294.926 261.444,305.327 238.561,307.792 213.700 L 308.040 211.200 305.020 211.200 L 302.000 211.200 302.000 212.910 M159.339 236.727 C 159.746 237.237,160.016 237.717,159.939 237.794 C 159.603 238.128,133.905 243.641,133.279 243.513 C 132.809 243.417,141.503 232.761,146.697 227.065 L 148.097 225.530 153.349 230.665 C 156.237 233.489,158.933 236.217,159.339 236.727 M168.258 243.864 C 170.534 245.952,171.887 247.473,171.667 247.693 C 171.385 247.975,160.001 250.154,155.000 250.883 C 153.512 251.100,154.106 250.213,158.734 245.300 C 164.231 239.465,163.574 239.564,168.258 243.864 M177.200 252.600 C 179.086 254.510,179.295 254.872,178.786 255.351 C 176.987 257.046,159.393 272.083,154.800 275.851 C 144.530 284.277,135.372 290.661,126.000 295.929 C 120.085 299.254,119.519 299.708,119.790 300.906 C 119.901 301.398,120.897 305.652,122.003 310.359 C 123.110 315.067,123.918 319.015,123.800 319.133 C 123.682 319.251,121.204 317.009,118.293 314.151 C 115.382 311.293,111.245 307.270,109.100 305.212 C 106.955 303.154,105.200 301.272,105.200 301.030 C 105.200 300.788,115.169 290.318,127.354 277.762 L 149.508 254.934 154.254 254.036 C 156.864 253.542,162.060 252.610,165.800 251.964 C 169.540 251.318,172.780 250.716,173.000 250.626 C 174.234 250.123,175.204 250.579,177.200 252.600 M263.200 286.720 C 262.870 286.831,261.598 287.690,260.373 288.628 C 256.502 291.594,250.401 295.276,244.201 298.388 L 238.201 301.400 237.029 304.800 C 230.510 323.707,247.573 343.288,267.218 339.444 C 288.233 335.332,296.386 309.561,281.406 294.598 C 276.519 289.716,266.792 285.508,263.200 286.720 M152.643 299.433 C 152.509 299.781,152.400 300.152,152.400 300.259 C 152.400 301.805,171.658 308.129,181.490 309.812 C 196.945 312.457,224.949 311.053,228.660 307.447 C 229.714 306.423,229.777 304.258,228.745 304.553 C 204.777 311.401,179.751 309.895,157.212 300.250 C 153.393 298.615,152.984 298.542,152.643 299.433 " stroke="none" fill="#f4f4f3" fill-rule="evenodd"></path><path id="path1" d="M190.800 19.839 C 77.507 26.186,-3.768 130.351,18.237 241.000 C 38.570 343.237,139.780 408.808,241.400 385.580 C 345.503 361.784,408.030 255.751,378.411 153.237 C 354.752 71.355,275.618 15.087,190.800 19.839 M269.133 70.609 C 287.967 75.049,296.316 96.893,285.219 112.696 C 278.969 121.595,265.998 126.833,260.200 122.798 C 254.292 118.686,250.629 116.452,245.600 113.893 C 239.278 110.676,238.844 110.265,237.399 106.132 C 230.419 86.159,248.628 65.775,269.133 70.609 M210.000 98.418 C 216.259 98.983,228.258 101.170,229.580 101.988 C 230.082 102.298,231.347 107.186,231.012 107.522 C 230.898 107.635,229.229 107.256,227.303 106.679 C 205.657 100.198,179.997 101.735,158.565 110.798 C 152.979 113.160,153.538 113.080,152.686 111.638 C 151.315 109.317,151.907 108.824,159.898 105.641 C 169.752 101.715,179.459 99.484,192.000 98.264 C 195.280 97.945,205.752 98.035,210.000 98.418 M142.126 117.356 L 143.000 118.895 142.019 119.548 C 125.507 130.532,111.750 146.918,104.193 164.600 C 102.335 168.949,99.200 177.893,99.200 178.847 C 99.200 180.208,98.325 180.374,96.946 179.274 C 95.275 177.941,95.277 177.849,97.059 172.323 C 103.987 150.845,117.757 132.065,136.564 118.446 C 141.011 115.225,140.926 115.242,142.126 117.356 M279.615 132.300 C 295.829 149.420,306.925 174.180,308.073 195.800 L 308.200 198.200 305.239 198.319 C 301.598 198.465,301.764 198.651,301.200 193.800 C 298.568 171.171,289.130 151.164,273.056 134.140 C 268.957 129.798,268.987 129.932,271.900 129.135 C 275.706 128.094,275.585 128.044,279.615 132.300 M247.580 135.225 C 265.142 138.074,274.539 156.781,266.588 173.068 C 260.976 184.564,243.698 190.048,232.181 183.990 L 230.000 182.843 229.992 185.121 C 229.921 205.691,213.009 230.818,181.000 257.915 C 178.140 260.336,171.570 265.954,166.400 270.401 C 157.214 278.301,149.723 284.320,144.303 288.156 C 141.180 290.367,140.848 290.771,141.744 291.273 C 142.601 291.752,142.574 292.497,141.660 293.625 L 140.920 294.540 139.698 293.670 C 138.058 292.502,138.156 292.477,133.921 295.139 C 131.874 296.426,128.760 298.261,127.000 299.216 C 122.926 301.429,123.131 300.716,124.668 307.309 C 125.398 310.439,126.619 315.680,127.382 318.954 C 129.880 329.674,129.002 329.475,115.671 316.300 C 110.050 310.745,104.404 305.167,103.125 303.905 C 100.049 300.869,99.940 301.166,106.693 294.242 C 114.316 286.426,121.363 279.193,121.537 279.006 C 121.613 278.925,120.081 277.001,118.133 274.729 C 108.403 263.383,101.409 251.016,97.021 237.400 C 94.974 231.049,94.995 231.397,96.581 230.188 C 98.257 228.909,98.616 229.075,98.962 231.291 C 99.721 236.145,106.071 251.600,109.680 257.379 C 113.768 263.924,115.177 265.929,119.255 271.000 C 122.752 275.348,123.777 276.207,124.683 275.545 C 126.172 274.457,157.127 242.197,156.797 242.076 C 156.314 241.900,145.836 244.074,132.873 247.039 C 128.552 248.027,128.310 248.042,127.573 247.375 C 126.213 246.145,126.206 246.157,133.852 237.200 C 134.322 236.650,136.401 234.220,138.473 231.800 C 140.545 229.380,144.478 224.700,147.212 221.400 C 176.782 185.708,199.183 169.938,217.580 171.861 L 219.990 172.113 218.958 169.574 C 211.687 151.679,228.040 132.054,247.580 135.225 M82.156 178.389 C 86.583 179.521,90.348 181.649,93.885 185.018 L 96.924 187.913 96.661 190.656 C 95.512 202.639,95.514 214.269,96.665 220.026 C 96.936 221.379,94.699 223.979,91.006 226.605 C 74.823 238.111,52.101 228.901,48.592 209.414 C 45.075 189.882,62.850 173.451,82.156 178.389 M307.934 210.920 C 308.421 211.507,307.986 216.983,306.977 222.974 C 303.501 243.600,293.251 263.722,278.602 278.677 L 275.000 282.354 272.487 281.517 C 269.489 280.518,269.374 280.984,273.795 276.207 C 289.924 258.780,299.679 237.162,301.413 215.000 C 301.568 213.020,301.876 211.175,302.097 210.900 C 302.646 210.216,307.363 210.232,307.934 210.920 M144.109 230.660 C 141.909 233.267,138.651 237.101,136.868 239.180 C 135.086 241.259,133.666 242.999,133.714 243.046 C 133.761 243.092,136.680 242.519,140.200 241.772 C 143.720 241.024,149.390 239.841,152.800 239.142 C 156.210 238.443,159.132 237.759,159.293 237.623 C 159.453 237.486,157.003 234.797,153.847 231.647 L 148.109 225.919 144.109 230.660 M269.400 287.039 C 290.673 292.132,296.619 321.363,279.082 334.638 C 257.165 351.228,226.912 328.710,237.060 303.361 L 238.044 300.902 244.522 297.691 C 250.240 294.856,255.893 291.401,261.578 287.267 C 263.539 285.841,264.303 285.818,269.400 287.039 M156.542 299.411 C 176.758 308.752,203.771 310.935,225.278 304.965 C 230.115 303.623,230.161 303.630,229.833 305.700 C 229.460 308.048,229.227 308.190,223.800 309.371 C 201.394 314.247,177.528 311.949,156.605 302.901 C 151.960 300.892,151.314 300.221,152.627 298.770 C 153.475 297.833,152.936 297.745,156.542 299.411 " stroke="none" fill="#f45c24" fill-rule="evenodd"></path><path id="path2" d="M239.699 138.421 C 215.270 142.760,214.282 177.446,238.435 182.803 C 241.396 183.459,248.101 183.156,250.141 182.274 L 251.682 181.607 244.904 174.503 C 236.287 165.472,235.200 164.239,235.200 163.495 C 235.200 163.161,240.065 158.427,246.011 152.976 C 251.956 147.524,256.760 142.869,256.685 142.632 C 255.940 140.269,244.817 137.511,239.699 138.421 M251.696 151.664 C 238.295 163.935,238.639 163.571,239.525 164.555 C 244.642 170.240,254.199 180.228,254.612 180.324 C 257.314 180.953,264.428 172.437,265.409 167.400 C 265.538 166.740,265.125 167.471,264.493 169.024 C 262.649 173.553,258.745 178.331,255.785 179.679 C 254.608 180.216,254.635 180.241,244.488 169.357 C 238.670 163.117,238.812 164.053,243.095 160.169 C 246.133 157.415,254.292 149.944,258.326 146.223 L 259.652 145.000 260.837 146.400 C 261.488 147.170,262.835 149.420,263.828 151.400 C 264.822 153.380,265.518 154.550,265.375 154.000 C 264.596 151.002,260.679 144.800,259.565 144.800 C 259.360 144.800,255.819 147.889,251.696 151.664 M258.010 156.587 C 257.627 157.050,257.629 157.767,258.019 159.952 C 258.452 162.377,258.429 162.993,257.835 164.808 C 257.015 167.316,257.239 167.885,258.150 165.609 C 258.916 163.694,258.983 161.304,258.332 159.129 C 257.929 157.787,257.959 157.470,258.539 156.890 C 261.305 154.123,262.610 164.151,259.952 167.750 C 259.472 168.400,259.330 168.823,259.625 168.725 C 260.500 168.433,261.640 165.774,261.877 163.472 C 262.387 158.538,259.967 154.230,258.010 156.587 M266.079 159.444 C 266.036 161.008,265.915 163.168,265.811 164.244 L 265.622 166.200 266.028 164.256 C 266.251 163.187,266.372 161.027,266.296 159.456 L 266.159 156.600 266.079 159.444 M195.230 208.281 L 165.953 237.800 170.272 241.900 C 172.646 244.155,174.782 246.000,175.018 246.000 C 175.254 246.000,177.774 243.615,180.620 240.700 C 183.465 237.785,193.554 227.543,203.040 217.940 C 219.994 200.776,224.091 196.146,226.272 191.689 C 228.307 187.529,227.579 179.354,225.132 178.882 C 224.749 178.809,213.187 190.176,195.230 208.281 M226.220 180.587 C 226.579 181.445,226.800 183.330,226.800 185.527 C 226.800 193.482,227.718 192.358,190.156 230.347 L 174.912 245.764 170.664 241.782 L 166.417 237.800 184.708 219.500 C 194.769 209.436,207.860 196.252,213.800 190.203 C 225.309 178.483,225.333 178.464,226.220 180.587 M222.781 200.641 C 222.681 200.883,212.296 211.589,199.702 224.431 L 176.803 247.780 179.089 250.090 C 180.346 251.361,181.607 252.400,181.890 252.400 C 183.459 252.400,199.042 237.132,206.008 228.769 C 214.405 218.688,223.678 203.580,223.111 200.902 C 223.029 200.516,222.881 200.398,222.781 200.641 M158.521 245.500 C 153.205 251.099,153.093 251.395,156.600 250.585 L 159.000 250.031 156.863 250.258 C 154.869 250.470,154.754 250.435,155.136 249.743 C 155.832 248.483,163.885 240.694,164.329 240.852 C 164.955 241.073,171.250 247.284,171.050 247.483 C 170.956 247.578,168.206 248.133,164.939 248.717 C 161.673 249.301,159.270 249.831,159.600 249.895 C 160.507 250.071,171.250 248.110,171.668 247.692 C 172.090 247.270,164.794 240.400,163.924 240.400 C 163.615 240.400,161.184 242.695,158.521 245.500 M173.000 250.626 C 172.780 250.716,169.540 251.318,165.800 251.964 C 162.060 252.610,156.864 253.542,154.254 254.036 L 149.508 254.934 127.354 277.762 C 115.169 290.318,105.200 300.788,105.200 301.030 C 105.200 301.272,106.955 303.154,109.100 305.212 C 111.245 307.270,115.382 311.293,118.293 314.151 C 121.204 317.009,123.682 319.251,123.800 319.133 C 123.918 319.015,123.110 315.067,122.003 310.359 C 120.897 305.652,119.901 301.398,119.790 300.906 C 119.519 299.708,120.085 299.254,126.000 295.929 C 135.372 290.661,144.530 284.277,154.800 275.851 C 159.393 272.083,176.987 257.046,178.786 255.351 C 180.033 254.177,174.791 249.897,173.000 250.626 " stroke="none" fill="#9b9b9b" fill-rule="evenodd"></path><path id="path3" d="M252.728 151.341 C 249.059 154.714,244.604 158.790,242.828 160.399 C 238.849 164.004,238.689 163.137,244.488 169.357 C 256.029 181.737,254.794 181.045,258.775 177.359 C 263.819 172.689,265.714 168.147,265.765 160.600 L 265.800 155.400 264.304 152.259 C 262.859 149.224,260.211 145.196,259.666 145.203 C 259.520 145.205,256.398 147.967,252.728 151.341 M260.528 156.585 C 263.238 159.295,261.873 168.600,258.766 168.600 C 257.059 168.600,256.875 167.884,257.815 164.895 C 258.421 162.968,258.447 162.344,258.016 159.933 C 257.380 156.377,258.640 154.697,260.528 156.585 M213.800 190.203 C 207.860 196.252,194.769 209.436,184.708 219.500 L 166.417 237.800 170.664 241.782 L 174.912 245.764 190.156 230.347 C 227.718 192.358,226.800 193.482,226.800 185.527 C 226.800 181.850,226.096 179.198,225.120 179.202 C 224.834 179.203,219.740 184.154,213.800 190.203 M159.190 245.464 C 156.237 248.481,154.814 250.198,155.200 250.281 C 155.810 250.412,170.773 247.760,171.063 247.470 C 171.286 247.247,164.859 241.025,164.265 240.888 C 163.998 240.826,161.714 242.886,159.190 245.464 " stroke="none" fill="#656565" fill-rule="evenodd"></path><path id="path4" d="M207.262 176.195 C 196.526 178.424,182.677 188.221,166.200 205.241 C 161.028 210.583,150.800 222.258,150.800 222.818 C 150.800 223.151,162.578 234.428,163.439 234.920 C 163.942 235.207,221.574 177.865,222.050 176.603 C 222.602 175.142,213.538 174.891,207.262 176.195 " stroke="none" fill="#fc941d" fill-rule="evenodd"></path><path id="path5" d="M196.900 19.498 C 198.825 19.571,201.975 19.571,203.900 19.498 C 205.825 19.425,204.250 19.365,200.400 19.365 C 196.550 19.365,194.975 19.425,196.900 19.498 M188.711 19.893 C 189.651 19.978,191.091 19.977,191.911 19.891 C 192.730 19.805,191.960 19.736,190.200 19.737 C 188.440 19.739,187.770 19.809,188.711 19.893 M208.900 19.891 C 209.725 19.978,211.075 19.978,211.900 19.891 C 212.725 19.805,212.050 19.734,210.400 19.734 C 208.750 19.734,208.075 19.805,208.900 19.891 M180.400 20.278 C 177.067 20.635,165.382 22.490,165.200 22.692 C 165.090 22.814,165.720 22.799,166.600 22.659 C 168.599 22.341,182.506 20.480,184.400 20.278 C 185.332 20.178,185.132 20.128,183.800 20.128 C 182.700 20.128,181.170 20.195,180.400 20.278 M217.800 20.422 C 219.560 20.632,224.126 21.261,227.948 21.821 C 231.769 22.380,234.970 22.763,235.061 22.672 C 235.360 22.374,221.886 20.422,218.200 20.229 L 214.600 20.042 217.800 20.422 M157.800 24.182 C 154.940 24.915,152.870 25.525,153.200 25.538 C 153.530 25.551,156.320 24.953,159.400 24.210 C 162.480 23.467,164.550 22.857,164.000 22.854 C 163.450 22.851,160.660 23.449,157.800 24.182 M241.000 24.210 C 244.080 24.953,246.870 25.551,247.200 25.538 C 248.170 25.501,237.497 22.848,236.400 22.854 C 235.850 22.857,237.920 23.467,241.000 24.210 M147.800 26.757 C 143.694 27.994,142.460 28.484,144.200 28.184 C 145.829 27.903,152.752 25.675,152.000 25.673 C 151.670 25.673,149.780 26.160,147.800 26.757 M248.033 25.762 C 248.263 25.985,256.638 28.407,257.060 28.372 C 257.677 28.321,254.254 27.136,251.249 26.361 C 248.185 25.571,247.754 25.490,248.033 25.762 M140.400 29.070 C 93.539 44.882,53.997 79.932,32.521 124.694 C 28.319 133.454,22.347 148.880,22.932 149.466 C 23.050 149.584,23.677 147.997,24.325 145.940 C 40.387 94.976,83.625 50.486,135.804 31.230 C 138.882 30.095,141.760 29.005,142.200 28.810 C 143.468 28.246,142.373 28.405,140.400 29.070 M257.600 28.567 C 257.600 28.659,259.085 29.224,260.900 29.822 C 320.350 49.414,368.441 103.630,381.626 165.925 C 382.152 168.414,382.644 170.268,382.718 170.046 C 382.893 169.520,381.493 163.025,379.948 157.200 C 364.685 99.649,321.780 52.256,265.800 31.114 C 261.193 29.374,257.600 28.258,257.600 28.567 M256.848 70.631 C 240.901 74.920,232.103 90.979,237.399 106.132 C 238.844 110.265,239.278 110.676,245.600 113.893 C 250.629 116.452,254.292 118.686,260.200 122.798 C 267.675 127.999,283.719 118.911,288.351 106.853 C 296.111 86.648,277.379 65.110,256.848 70.631 M268.590 71.011 C 289.161 75.260,296.792 100.661,282.000 115.644 C 275.440 122.288,264.651 125.720,260.438 122.502 C 255.987 119.102,251.206 116.193,244.778 112.974 L 239.730 110.446 238.680 108.105 C 229.752 88.211,247.186 66.589,268.590 71.011 M192.000 98.264 C 179.459 99.484,169.752 101.715,159.898 105.641 C 151.907 108.824,151.315 109.317,152.686 111.638 C 153.538 113.080,152.979 113.160,158.565 110.798 C 179.997 101.735,205.657 100.198,227.303 106.679 C 231.466 107.925,231.372 107.978,230.629 104.794 C 229.917 101.738,230.224 101.937,224.259 100.670 C 213.199 98.319,200.880 97.400,192.000 98.264 M214.600 99.395 C 219.128 100.001,224.303 101.005,227.916 101.977 C 229.416 102.381,229.555 102.543,230.006 104.427 C 230.646 107.091,230.758 107.062,225.327 105.650 C 202.833 99.804,178.646 101.548,158.200 110.490 C 156.220 111.356,154.387 112.155,154.127 112.265 C 153.691 112.449,152.400 110.514,152.400 109.677 C 152.400 109.252,159.429 106.218,164.600 104.410 C 179.873 99.071,198.346 97.218,214.600 99.395 M136.564 118.446 C 118.562 131.482,100.560 155.829,97.410 171.400 C 97.277 172.060,97.897 170.710,98.788 168.400 C 106.655 148.004,120.156 130.573,137.765 118.078 C 140.570 116.088,140.990 116.034,141.780 117.561 L 142.380 118.721 138.890 121.239 C 128.249 128.914,118.750 138.837,111.904 149.425 C 109.015 153.893,105.422 160.355,105.682 160.615 C 105.776 160.709,106.635 159.305,107.590 157.493 C 115.382 142.721,127.865 128.964,142.019 119.548 L 143.000 118.895 142.126 117.356 C 140.926 115.242,141.011 115.225,136.564 118.446 M271.900 129.135 C 268.987 129.932,268.957 129.798,273.056 134.140 C 280.483 142.006,286.434 150.446,291.167 159.824 C 294.233 165.900,294.899 166.759,292.471 161.507 C 287.965 151.761,281.305 142.182,273.242 133.854 L 269.808 130.307 272.204 129.560 C 275.706 128.467,275.626 128.429,279.851 133.100 C 295.419 150.308,305.295 171.785,307.396 193.000 C 307.527 194.320,307.724 195.985,307.835 196.700 L 308.036 198.000 305.073 198.000 L 302.110 198.000 301.836 195.300 C 301.415 191.160,300.719 186.748,300.518 186.948 C 300.331 187.135,301.493 197.007,301.808 197.917 C 301.939 198.294,302.829 198.402,305.094 198.317 L 308.200 198.200 308.073 195.800 C 306.925 174.180,295.829 149.420,279.615 132.300 C 275.585 128.044,275.706 128.094,271.900 129.135 M237.870 135.418 C 222.805 138.413,213.268 155.569,218.926 169.495 C 219.820 171.696,219.856 171.974,219.263 172.131 C 218.831 172.246,218.928 172.323,219.543 172.354 C 220.293 172.391,220.426 172.257,220.192 171.700 C 208.833 144.592,241.886 122.617,262.400 143.639 C 274.653 156.196,269.389 178.713,252.907 184.243 C 251.096 184.851,249.690 185.423,249.782 185.515 C 250.874 186.608,259.269 182.057,262.694 178.516 C 280.022 160.597,262.679 130.486,237.870 135.418 M22.229 151.029 C 22.081 151.615,22.038 152.172,22.132 152.266 C 22.227 152.360,22.424 151.958,22.571 151.371 C 22.719 150.785,22.762 150.228,22.668 150.134 C 22.573 150.040,22.376 150.442,22.229 151.029 M20.683 156.489 C 19.324 161.392,17.733 168.507,17.438 171.000 C 17.084 173.985,17.429 172.796,18.598 167.000 C 19.175 164.140,20.191 159.850,20.856 157.466 C 21.521 155.082,21.986 153.053,21.888 152.955 C 21.791 152.858,21.249 154.448,20.683 156.489 M105.069 161.500 C 104.194 162.969,99.988 174.151,100.019 174.924 C 100.030 175.186,100.801 173.330,101.732 170.800 C 102.663 168.270,103.543 166.011,103.687 165.779 C 104.141 165.050,105.596 161.200,105.418 161.200 C 105.324 161.200,105.167 161.335,105.069 161.500 M294.205 166.200 C 295.257 169.377,296.920 173.613,297.060 173.473 C 297.269 173.265,295.066 167.165,294.413 166.141 C 293.967 165.443,293.955 165.446,294.205 166.200 M382.800 170.921 C 382.800 171.061,383.090 173.116,383.444 175.488 C 383.798 177.860,384.409 182.590,384.801 186.000 C 385.192 189.410,385.533 191.608,385.556 190.884 C 385.642 188.290,383.463 171.330,382.982 170.849 C 382.882 170.749,382.800 170.781,382.800 170.921 M214.300 171.882 C 214.795 171.978,215.605 171.978,216.100 171.882 C 216.595 171.787,216.190 171.709,215.200 171.709 C 214.210 171.709,213.805 171.787,214.300 171.882 M209.700 172.276 C 210.085 172.376,210.715 172.376,211.100 172.276 C 211.485 172.175,211.170 172.093,210.400 172.093 C 209.630 172.093,209.315 172.175,209.700 172.276 M205.600 172.861 C 204.830 173.074,203.507 173.430,202.660 173.651 C 201.812 173.872,201.195 174.128,201.287 174.220 C 201.380 174.313,203.153 173.950,205.228 173.414 C 207.302 172.878,208.550 172.447,208.000 172.456 C 207.450 172.465,206.370 172.647,205.600 172.861 M96.227 174.833 C 95.362 177.746,95.412 178.050,96.962 179.287 C 98.518 180.529,98.968 180.284,99.329 178.000 L 99.550 176.600 99.105 178.100 C 98.102 181.474,95.651 178.840,96.559 175.365 C 97.327 172.423,97.067 172.006,96.227 174.833 M16.585 175.385 C 16.430 176.623,16.390 177.723,16.495 177.829 C 16.601 177.934,16.807 177.001,16.954 175.754 C 17.100 174.507,17.141 173.407,17.043 173.310 C 16.946 173.212,16.739 174.146,16.585 175.385 M297.200 174.160 C 297.200 174.839,299.346 182.387,299.496 182.237 C 299.677 182.057,297.694 174.361,297.389 174.055 C 297.285 173.952,297.200 173.998,297.200 174.160 M215.800 175.203 C 220.212 175.585,222.007 175.993,221.942 176.600 C 221.841 177.562,163.988 235.233,163.439 234.920 C 162.578 234.428,150.800 223.151,150.800 222.818 C 150.800 220.237,176.701 194.246,186.600 186.894 C 190.714 183.838,192.478 182.344,190.000 184.014 C 180.879 190.161,167.589 202.586,156.457 215.372 C 149.417 223.459,149.684 222.417,153.672 226.241 C 162.304 234.516,163.484 235.600,163.865 235.600 C 164.252 235.600,222.471 177.034,222.718 176.396 C 222.970 175.745,220.016 175.130,216.000 174.996 L 211.800 174.856 215.800 175.203 M196.100 176.412 C 193.250 178.046,193.441 178.294,196.400 176.800 C 198.614 175.682,199.256 175.194,198.500 175.204 C 198.335 175.206,197.255 175.749,196.100 176.412 M206.468 175.870 C 202.644 176.775,203.727 176.882,208.023 176.023 C 210.100 175.607,211.170 175.268,210.400 175.269 C 209.630 175.270,207.861 175.540,206.468 175.870 M71.705 177.887 C 72.314 177.979,73.214 177.977,73.705 177.882 C 74.197 177.787,73.700 177.711,72.600 177.714 C 71.500 177.717,71.097 177.795,71.705 177.887 M76.905 177.887 C 77.514 177.979,78.414 177.977,78.905 177.882 C 79.397 177.787,78.900 177.711,77.800 177.714 C 76.700 177.717,76.297 177.795,76.905 177.887 M198.300 178.826 C 197.035 179.479,196.000 180.103,196.000 180.212 C 196.000 180.391,200.760 178.125,201.167 177.753 C 201.690 177.273,200.298 177.794,198.300 178.826 M66.735 178.767 C 59.124 181.201,49.165 191.412,49.205 196.741 C 49.208 197.103,49.814 196.016,50.553 194.324 C 53.964 186.511,60.117 181.054,68.086 178.776 C 69.469 178.380,70.240 178.054,69.800 178.050 C 69.360 178.046,67.981 178.369,66.735 178.767 M82.293 178.770 C 87.489 180.256,93.520 184.159,95.795 187.507 C 96.348 188.320,96.800 188.719,96.801 188.393 C 96.805 185.699,84.402 177.848,80.427 178.028 C 80.082 178.044,80.922 178.378,82.293 178.770 M190.348 179.929 C 177.628 188.232,163.195 202.109,147.212 221.400 C 144.478 224.700,140.545 229.380,138.473 231.800 C 125.533 246.913,126.125 246.065,127.584 247.385 C 128.319 248.051,128.509 248.055,130.684 247.456 C 132.438 246.972,132.612 246.868,131.400 247.030 C 130.520 247.147,129.504 247.329,129.142 247.435 C 128.500 247.623,127.200 246.671,127.200 246.012 C 127.200 245.830,130.473 241.838,134.474 237.141 C 138.475 232.443,144.365 225.450,147.564 221.600 C 163.574 202.331,177.275 189.099,189.800 180.809 C 193.091 178.631,193.929 178.000,193.531 178.000 C 193.406 178.000,191.973 178.868,190.348 179.929 M15.461 183.899 C 15.092 186.925,14.714 191.920,14.620 195.000 L 14.449 200.600 14.802 195.800 C 14.997 193.160,15.451 188.240,15.812 184.867 C 16.172 181.494,16.392 178.658,16.300 178.566 C 16.207 178.474,15.830 180.874,15.461 183.899 M193.500 181.608 C 191.482 182.876,190.821 183.705,192.726 182.580 C 194.060 181.792,195.885 180.418,195.600 180.416 C 195.490 180.416,194.545 180.952,193.500 181.608 M229.352 186.100 C 229.101 205.329,212.501 230.465,184.000 254.771 C 180.810 257.491,174.528 262.886,170.040 266.758 C 159.064 276.229,152.909 281.248,146.085 286.293 L 140.371 290.517 141.184 291.383 C 142.516 292.801,141.369 294.100,139.668 293.100 C 138.046 292.147,137.690 292.199,135.395 293.731 C 134.298 294.462,131.098 296.381,128.284 297.995 C 125.470 299.608,123.100 301.039,123.017 301.173 C 122.855 301.435,125.146 311.679,125.430 311.964 C 125.799 312.332,125.534 310.802,124.455 306.320 C 123.141 300.864,122.941 301.420,127.000 299.216 C 128.760 298.261,131.874 296.426,133.921 295.139 C 138.156 292.477,138.058 292.502,139.698 293.670 L 140.920 294.540 141.660 293.625 C 142.574 292.497,142.601 291.752,141.744 291.273 C 140.848 290.771,141.180 290.367,144.303 288.156 C 149.723 284.320,157.214 278.301,166.400 270.401 C 171.570 265.954,178.140 260.336,181.000 257.915 C 213.039 230.793,229.922 205.693,229.992 185.076 C 229.998 183.423,230.133 182.835,230.462 183.038 C 230.748 183.215,230.815 183.148,230.638 182.862 C 229.807 181.518,229.398 182.548,229.352 186.100 M231.416 183.626 C 231.669 184.036,236.003 185.669,236.430 185.515 C 236.606 185.452,235.505 184.928,233.983 184.352 C 232.462 183.775,231.306 183.449,231.416 183.626 M239.700 186.276 C 240.085 186.376,240.715 186.376,241.100 186.276 C 241.485 186.175,241.170 186.093,240.400 186.093 C 239.630 186.093,239.315 186.175,239.700 186.276 M245.300 186.276 C 245.685 186.376,246.315 186.376,246.700 186.276 C 247.085 186.175,246.770 186.093,246.000 186.093 C 245.230 186.093,244.915 186.175,245.300 186.276 M96.265 190.888 C 95.085 199.178,95.078 214.494,96.251 220.041 C 96.572 221.561,92.328 225.652,88.090 227.906 C 72.795 236.042,54.173 228.284,49.384 211.781 C 48.842 209.916,48.821 209.894,49.016 211.400 C 50.641 223.960,67.973 234.480,81.316 231.005 C 88.924 229.023,97.211 223.004,96.650 219.867 C 95.569 213.830,95.481 202.703,96.440 193.458 C 96.850 189.512,96.724 187.664,96.265 190.888 M385.742 195.800 C 385.741 197.780,385.808 198.640,385.892 197.712 C 385.976 196.784,385.977 195.164,385.895 194.112 C 385.812 193.060,385.743 193.820,385.742 195.800 M48.493 200.400 C 48.493 201.170,48.575 201.485,48.676 201.100 C 48.776 200.715,48.776 200.085,48.676 199.700 C 48.575 199.315,48.493 199.630,48.493 200.400 M48.131 204.600 C 48.133 206.140,48.205 206.721,48.292 205.891 C 48.379 205.061,48.377 203.801,48.289 203.091 C 48.200 202.381,48.129 203.060,48.131 204.600 M302.100 210.900 C 301.880 211.175,301.579 212.930,301.430 214.800 C 301.280 216.670,300.893 219.891,300.569 221.957 C 300.245 224.023,300.055 225.788,300.145 225.879 C 300.514 226.247,301.968 216.164,301.988 213.100 L 302.000 211.200 305.000 211.200 C 307.831 211.200,308.003 211.251,308.046 212.100 C 308.083 212.807,308.133 212.846,308.279 212.281 C 308.717 210.594,303.306 209.386,302.100 210.900 M14.446 212.600 C 14.360 216.695,16.205 234.328,16.672 233.861 C 16.765 233.768,16.633 232.123,16.378 230.205 C 16.123 228.288,15.593 223.092,15.201 218.660 C 14.809 214.227,14.470 211.500,14.446 212.600 M385.734 213.600 C 385.734 215.250,385.805 215.925,385.891 215.100 C 385.978 214.275,385.978 212.925,385.891 212.100 C 385.805 211.275,385.734 211.950,385.734 213.600 M307.664 214.668 C 306.891 234.822,294.424 261.953,278.518 278.100 C 274.838 281.836,274.833 281.838,272.760 281.145 C 270.481 280.383,270.539 280.178,274.106 276.430 C 280.378 269.839,289.039 257.608,290.908 252.700 C 291.494 251.162,290.784 252.159,289.198 255.100 C 285.436 262.078,280.051 269.448,273.705 276.304 C 269.387 280.970,269.492 280.519,272.487 281.517 L 275.000 282.354 278.602 278.677 C 289.191 267.867,297.882 253.730,302.871 239.200 C 305.493 231.566,308.303 217.612,307.888 214.286 C 307.749 213.167,307.720 213.216,307.664 214.668 M384.859 223.000 C 384.567 226.080,384.077 230.130,383.771 232.000 C 383.074 236.257,383.099 237.880,383.808 234.400 C 384.473 231.137,385.710 219.575,385.527 218.330 C 385.452 217.818,385.151 219.920,384.859 223.000 M146.689 227.074 C 142.062 232.149,132.814 243.405,133.173 243.524 C 133.409 243.603,136.323 243.074,139.649 242.350 C 142.976 241.625,145.532 240.977,145.330 240.910 C 145.127 240.842,142.451 241.315,139.382 241.961 C 136.313 242.607,133.762 243.096,133.714 243.048 C 133.666 243.000,135.086 241.259,136.868 239.180 C 138.651 237.101,141.909 233.267,144.109 230.660 L 148.109 225.919 153.833 231.633 C 156.981 234.775,159.466 237.493,159.355 237.673 C 159.244 237.853,159.343 238.000,159.576 238.000 C 160.510 238.000,154.668 231.661,148.217 225.674 C 148.142 225.604,147.455 226.234,146.689 227.074 M298.438 231.867 C 297.225 236.430,297.056 237.277,297.615 236.000 C 298.304 234.427,299.672 229.215,299.517 228.752 C 299.441 228.522,298.955 229.924,298.438 231.867 M96.479 230.296 L 95.179 231.400 95.949 234.000 C 97.502 239.250,97.954 239.489,96.552 234.319 L 95.824 231.639 96.770 230.632 C 97.979 229.345,98.158 229.487,98.768 232.213 C 99.045 233.450,99.347 234.386,99.440 234.293 C 99.734 234.000,98.566 229.455,98.163 229.321 C 97.952 229.251,97.194 229.689,96.479 230.296 M100.400 237.510 C 100.400 238.178,102.479 243.654,102.663 243.470 C 102.815 243.318,100.874 237.583,100.553 237.233 C 100.469 237.142,100.400 237.266,100.400 237.510 M295.647 240.847 C 295.184 242.218,294.869 243.402,294.946 243.479 C 295.023 243.556,295.487 242.520,295.976 241.176 C 296.466 239.833,296.782 238.649,296.678 238.545 C 296.574 238.440,296.110 239.477,295.647 240.847 M97.600 239.125 C 97.600 244.064,109.436 264.587,118.133 274.729 C 120.081 277.001,121.613 278.925,121.537 279.006 C 121.363 279.193,114.316 286.426,106.693 294.242 C 99.940 301.166,100.049 300.869,103.125 303.905 C 104.404 305.167,110.050 310.745,115.671 316.300 C 126.328 326.832,127.342 327.576,128.386 325.626 C 129.017 324.447,128.880 324.108,128.177 325.111 C 127.835 325.600,127.250 325.996,126.877 325.992 C 125.686 325.977,101.010 301.466,101.436 300.720 C 101.915 299.881,105.696 295.864,114.659 286.671 C 122.375 278.758,122.503 278.574,121.149 277.362 C 114.167 271.109,103.528 254.124,99.131 242.210 C 97.938 238.978,97.600 238.296,97.600 239.125 M149.687 239.690 C 147.644 240.139,146.057 240.590,146.159 240.693 C 146.361 240.895,154.800 239.191,154.800 238.948 C 154.800 238.671,153.403 238.873,149.687 239.690 M17.750 240.800 C 18.123 243.372,19.314 248.419,19.504 248.229 C 19.704 248.030,17.997 239.474,17.703 239.200 C 17.585 239.090,17.606 239.810,17.750 240.800 M381.474 244.514 C 380.295 249.894,380.147 251.167,381.024 248.400 C 381.709 246.234,382.926 239.992,382.705 239.771 C 382.618 239.685,382.064 241.819,381.474 244.514 M153.227 242.128 C 151.152 242.581,149.662 243.021,149.916 243.105 C 150.170 243.190,151.728 242.959,153.377 242.592 C 155.026 242.225,156.547 241.987,156.756 242.063 C 157.113 242.192,126.286 274.374,124.683 275.545 C 124.025 276.026,123.795 275.955,122.722 274.945 C 120.551 272.900,115.561 266.516,112.760 262.200 C 109.148 256.636,108.378 255.274,105.627 249.582 C 102.574 243.267,101.776 242.245,104.494 248.131 C 109.022 257.940,115.686 268.049,122.337 275.200 L 124.011 277.000 128.683 272.200 C 146.047 254.361,158.000 241.868,158.000 241.560 C 158.000 241.106,157.804 241.130,153.227 242.128 M139.496 245.100 C 136.908 245.663,134.872 246.205,134.970 246.303 C 135.159 246.493,145.282 244.452,145.567 244.167 C 145.912 243.821,144.051 244.107,139.496 245.100 M292.874 247.674 C 291.949 249.682,291.257 251.390,291.335 251.469 C 291.414 251.547,292.240 249.973,293.170 247.970 C 294.101 245.968,294.793 244.260,294.709 244.176 C 294.625 244.091,293.799 245.666,292.874 247.674 M19.603 249.033 C 19.607 249.614,21.891 258.093,22.342 259.200 C 23.085 261.026,22.815 259.691,21.354 254.317 C 20.008 249.366,19.596 248.124,19.603 249.033 M378.825 255.303 C 376.960 261.946,377.060 261.523,377.528 260.800 C 378.022 260.035,380.471 251.212,380.316 250.751 C 380.252 250.561,379.581 252.609,378.825 255.303 M22.800 260.570 C 22.800 261.027,25.616 268.945,25.853 269.156 C 26.004 269.290,26.035 269.130,25.922 268.800 C 25.810 268.470,25.136 266.445,24.426 264.300 C 23.333 260.999,22.800 259.777,22.800 260.570 M375.583 265.474 C 374.230 269.573,374.245 269.510,374.756 268.800 C 375.356 267.967,376.927 263.194,376.682 262.949 C 376.572 262.839,376.077 263.975,375.583 265.474 M25.995 269.900 C 25.962 271.678,35.419 291.659,39.404 298.231 C 49.562 314.986,56.124 323.403,69.167 336.410 C 84.893 352.092,101.819 364.001,121.242 373.048 C 128.197 376.288,141.055 381.315,141.773 381.075 C 142.008 380.996,141.210 380.608,140.000 380.211 C 90.086 363.856,45.359 320.826,26.999 271.500 C 26.336 269.721,26.007 269.197,25.995 269.900 M373.436 271.527 C 352.720 323.177,310.878 363.565,261.074 379.984 C 259.575 380.478,258.432 380.965,258.534 381.067 C 258.999 381.532,272.396 376.294,280.200 372.596 C 306.634 360.069,333.301 338.244,349.116 316.193 C 350.060 314.877,351.741 312.540,352.853 311.000 C 360.103 300.956,369.054 284.217,373.670 272.072 C 374.672 269.434,374.468 268.956,373.436 271.527 M261.578 287.267 C 255.893 291.401,250.240 294.856,244.522 297.691 L 238.044 300.902 237.060 303.361 C 228.093 325.759,251.631 348.007,273.600 337.897 C 294.433 328.310,294.827 298.834,274.257 288.810 C 268.780 286.142,263.936 285.552,261.578 287.267 M270.200 287.814 C 296.679 295.765,294.464 334.113,267.218 339.444 C 247.573 343.288,230.510 323.707,237.029 304.800 L 238.201 301.400 244.201 298.388 C 250.401 295.276,256.502 291.594,260.373 288.628 C 263.642 286.125,264.372 286.064,270.200 287.814 M152.627 298.770 C 151.314 300.221,151.960 300.892,156.605 302.901 C 177.528 311.949,201.394 314.247,223.800 309.371 C 229.227 308.190,229.460 308.048,229.833 305.700 C 230.161 303.630,230.115 303.623,225.278 304.965 C 203.771 310.935,176.758 308.752,156.542 299.411 C 152.936 297.745,153.475 297.833,152.627 298.770 M157.212 300.250 C 179.751 309.895,204.777 311.401,228.745 304.553 C 229.777 304.258,229.714 306.423,228.660 307.447 C 224.949 311.053,196.945 312.457,181.490 309.812 C 171.658 308.129,152.400 301.805,152.400 300.259 C 152.400 298.490,153.098 298.489,157.212 300.250 M125.653 312.800 C 125.634 313.130,126.224 315.830,126.965 318.800 C 127.705 321.770,128.327 323.930,128.347 323.600 C 128.366 323.270,127.776 320.570,127.035 317.600 C 126.295 314.630,125.673 312.470,125.653 312.800 M142.436 381.369 C 142.769 381.702,152.135 384.422,152.514 384.295 C 152.727 384.224,150.648 383.499,147.895 382.683 C 143.044 381.246,142.081 381.014,142.436 381.369 M255.400 381.810 C 254.520 382.111,252.360 382.814,250.600 383.372 C 248.840 383.930,248.025 384.277,248.790 384.142 C 250.588 383.825,258.388 381.285,257.600 381.272 C 257.270 381.267,256.280 381.509,255.400 381.810 M153.274 384.608 C 153.582 384.915,162.069 386.797,163.000 386.765 C 163.440 386.749,161.640 386.218,159.000 385.584 C 154.237 384.441,152.875 384.208,153.274 384.608 M241.400 385.600 C 238.980 386.212,237.270 386.730,237.600 386.753 C 238.350 386.803,246.843 384.890,247.126 384.608 C 247.540 384.193,245.711 384.510,241.400 385.600 M166.021 387.334 C 166.375 387.720,175.487 389.111,179.200 389.346 C 183.030 389.589,182.859 389.557,173.000 388.184 C 170.580 387.846,167.970 387.463,167.200 387.332 C 166.430 387.201,165.899 387.202,166.021 387.334 M229.600 387.856 C 229.270 387.946,226.480 388.354,223.400 388.763 C 220.320 389.173,218.376 389.528,219.080 389.554 C 220.565 389.607,228.881 388.556,231.093 388.035 C 232.470 387.711,232.496 387.681,231.400 387.687 C 230.740 387.690,229.930 387.766,229.600 387.856 M184.105 389.887 C 184.714 389.979,185.614 389.977,186.105 389.882 C 186.597 389.787,186.100 389.711,185.000 389.714 C 183.900 389.717,183.497 389.795,184.105 389.887 M214.505 389.887 C 215.114 389.979,216.014 389.977,216.505 389.882 C 216.997 389.787,216.500 389.711,215.400 389.714 C 214.300 389.717,213.897 389.795,214.505 389.887 M189.312 390.295 C 190.364 390.377,191.984 390.376,192.912 390.292 C 193.840 390.208,192.980 390.141,191.000 390.142 C 189.020 390.143,188.260 390.212,189.312 390.295 M207.900 390.293 C 208.835 390.377,210.365 390.377,211.300 390.293 C 212.235 390.209,211.470 390.140,209.600 390.140 C 207.730 390.140,206.965 390.209,207.900 390.293 " stroke="none" fill="#f59573" fill-rule="evenodd"></path></g></svg>